<?xml version="1.0" standalone="no"?><!DOCTYPE svg PUBLIC "-//W3C//DTD SVG 1.1//EN" "http://www.w3.org/Graphics/SVG/1.1/DTD/svg11.dtd"><svg t="1559012513983" class="icon" style="" viewBox="0 0 1024 1024" version="1.1" xmlns="http://www.w3.org/2000/svg" p-id="1989" xmlns:xlink="http://www.w3.org/1999/xlink" width="200" height="200"><defs><style type="text/css"></style></defs><path d="M748.434897 853.076142c9.549493 16.139585 4.169973 37.658691-12.507872 46.736441-16.408715 9.549493-37.186947 3.900843-46.467311-12.507872-10.020214-16.139585-4.168949-37.187971 11.970636-46.736441C718.376301 831.087339 738.886427 836.93758 748.434897 853.076142L748.434897 853.076142 748.434897 853.076142zM546.56012 926.039921 546.56012 926.039921c0 18.627243-15.399735 34.228569-34.765805 34.228569-18.628266 0-34.228569-15.198144-34.228569-34.228569l0-24.006763c0-19.097964 15.667841-34.296107 34.228569-34.296107 19.09694 0 34.765805 15.19712 34.765805 34.296107L546.56012 926.039921 546.56012 926.039921 546.56012 926.039921zM335.13585 887.37225 335.13585 887.37225c-9.751085 16.878412-30.798447 22.258956-47.00557 12.709463-16.609283-9.347902-22.528086-30.327726-12.70844-47.00557l25.485441-44.584428c9.818623-16.408715 30.867008-22.057365 47.477314-12.709463 16.139585 9.54847 22.056342 30.867008 12.238742 47.00557L335.13585 887.37225 335.13585 887.37225 335.13585 887.37225zM171.120332 748.84422 171.120332 748.84422c-16.609283 9.280364-37.925774 3.698229-47.004547-12.709463-9.751085-16.139585-4.169973-37.456077 12.238742-47.004547l68.524676-39.675628c16.408715-9.078773 37.658691-3.967358 47.00557 12.70844 9.279341 16.139585 3.63069 37.4571-12.709463 47.00557L171.120332 748.84422 171.120332 748.84422 171.120332 748.84422zM98.225115 546.43016 98.225115 546.43016c-19.097964 0-34.228569-15.399735-34.228569-34.228569 0-19.09694 15.130605-34.496675 34.228569-34.496675l106.720603 0c19.097964 0 34.228569 15.399735 34.228569 34.228569 0 19.09694-15.130605 34.496675-34.228569 34.496675L98.225115 546.43016 98.225115 546.43016 98.225115 546.43016zM136.421043 334.737784 136.421043 334.737784c-16.676821-9.280364-22.056342-30.329772-12.238742-46.736441 9.078773-16.610306 30.327726-22.25998 47.00557-12.710486l115.932406 67.314105c16.408715 9.347902 21.788236 30.327726 12.709463 46.534849-9.751085 16.610306-30.798447 21.99085-46.938032 12.709463L136.421043 334.737784 136.421043 334.737784 136.421043 334.737784zM275.420817 170.788781 275.420817 170.788781l80.763418 140.210345c9.8176 16.408715 30.867008 22.257933 47.207162 12.507872 16.408715-9.279341 21.788236-30.597879 12.239765-47.00557l-81.032548-139.940193c-9.280364-16.2061-30.329772-22.056342-46.468334-12.507872C271.453459 133.600811 266.073938 154.649196 275.420817 170.788781L275.420817 170.788781 275.420817 170.788781zM477.565746 98.364285 477.565746 98.364285c0-18.628266 15.667841-34.498722 34.228569-34.498722 19.09694 0 34.765805 15.467273 34.765805 34.498722l0 161.526837c0 19.097964-15.399735 34.498722-34.765805 34.765805-18.628266 0-34.228569-15.130605-34.228569-34.765805L477.565746 98.364285 477.565746 98.364285 477.565746 98.364285zM688.990017 136.560212 688.990017 136.560212c9.8176-16.609283 30.597879-22.056342 47.004547-12.709463 16.610306 9.280364 22.528086 30.329772 12.709463 47.00557l-80.966033 140.210345c-9.145287 16.341177-30.664394 22.191418-47.004547 12.709463-16.408715-9.54847-21.788236-30.867008-12.508895-47.2747L688.990017 136.560212 688.990017 136.560212 688.990017 136.560212zM853.476255 275.290857 853.476255 275.290857l-140.479475 80.966033c-16.408715 9.279341-22.057365 30.327726-12.709463 47.004547 9.751085 16.139585 30.79947 21.519106 47.00557 12.508895l140.479475-80.966033c16.139585-9.280364 22.056342-30.327726 12.238742-46.736441C890.663202 271.390014 869.548302 265.473257 853.476255 275.290857L853.476255 275.290857 853.476255 275.290857zM925.630598 477.703893 925.630598 477.703893c19.300578 0 34.498722 15.399735 34.228569 34.496675 0 18.828834-14.927991 34.228569-34.228569 34.228569L763.90217 546.429137c-18.627243 0-34.296107-15.399735-34.296107-34.496675 0-18.828834 15.668865-34.228569 34.296107-34.228569L925.630598 477.703893 925.630598 477.703893 925.630598 477.703893z" p-id="1990"></path></svg>