<?xml version="1.0" encoding="UTF-8" ?>
<!DOCTYPE svg PUBLIC "-//W3C//DTD SVG 1.1//EN" "http://www.w3.org/Graphics/SVG/1.1/DTD/svg11.dtd">
<svg width="704pt" height="706pt" viewBox="0 0 704 706" version="1.1" xmlns="http://www.w3.org/2000/svg">
<g id="#ffffffff">
</g>
<g id="whiteff">
<path fill="white" opacity="1.00" d=" M 343.12 25.19 C 349.07 24.79 355.05 24.89 361.00 25.32 C 418.01 26.81 474.53 43.76 523.00 73.82 C 584.50 111.55 632.85 170.19 658.07 237.81 C 678.99 293.36 684.22 354.63 673.39 412.96 C 659.51 489.54 616.91 560.38 556.08 608.86 C 501.44 652.96 432.24 678.73 362.02 680.67 C 351.04 681.59 340.03 680.65 329.05 680.21 C 287.88 677.48 247.21 666.97 209.98 649.15 C 138.75 615.43 80.61 555.05 49.64 482.56 C 29.14 435.06 20.29 382.61 23.78 331.02 C 26.35 292.35 35.78 254.12 51.70 218.78 C 67.30 183.97 89.13 151.98 115.66 124.59 C 145.57 93.81 181.52 68.93 220.91 51.92 C 259.40 35.18 301.18 26.20 343.12 25.19 M 340.35 42.45 C 315.52 43.42 290.76 47.09 266.84 53.88 C 225.65 65.42 186.95 85.68 153.94 112.86 C 121.08 139.83 93.76 173.57 74.41 211.43 C 50.99 256.77 39.30 308.03 40.33 359.02 C 41.24 412.66 56.44 465.98 84.04 511.99 C 121.76 575.50 182.79 624.79 252.98 647.90 C 329.84 673.69 416.79 667.73 489.24 631.25 C 557.85 597.31 612.97 537.11 640.56 465.69 C 669.82 391.24 668.60 305.44 637.12 231.89 C 607.83 162.34 552.22 104.38 483.97 72.20 C 439.41 50.91 389.68 40.87 340.35 42.45 M 593.29 147.36 C 593.82 147.84 593.82 147.84 593.29 147.36 M 35.61 282.43 C 22.95 334.43 24.59 389.80 40.38 440.94 C 53.76 484.43 77.08 524.89 108.10 558.19 C 104.38 553.21 100.29 548.53 96.61 543.52 C 65.08 501.62 44.23 451.75 36.66 399.85 C 27.54 337.96 36.73 273.35 63.78 216.85 C 75.43 191.99 90.73 168.97 108.13 147.78 C 73.03 185.51 47.78 232.36 35.61 282.43 M 594.83 148.90 C 607.27 164.52 618.95 180.81 628.60 198.33 C 650.63 237.72 664.07 281.87 667.64 326.86 C 671.34 372.87 665.26 419.74 649.13 463.05 C 636.53 497.62 617.46 529.64 594.03 557.96 C 640.03 508.58 668.90 443.37 673.83 376.01 C 677.35 331.99 670.77 287.22 654.98 245.99 C 641.24 210.25 620.81 177.03 594.83 148.90 Z" />
<path fill="white" opacity="1.00" d=" M 384.64 68.80 C 387.88 67.77 391.26 66.90 394.32 68.97 C 394.31 70.79 394.26 72.62 394.18 74.44 C 391.31 74.96 388.43 75.46 385.54 75.80 C 385.30 73.46 384.97 71.12 384.64 68.80 Z" />
<path fill="white" opacity="1.00" d=" M 403.07 73.97 C 402.82 69.61 410.61 68.77 411.37 72.99 C 409.56 77.11 406.96 80.84 405.06 84.92 C 405.59 85.41 406.66 86.38 407.20 86.87 C 407.57 90.56 405.35 93.48 403.68 96.53 C 404.00 98.49 406.84 96.66 408.12 96.71 C 409.36 96.30 411.01 96.03 411.60 94.69 C 414.02 86.77 414.76 78.20 418.99 70.92 C 420.58 70.45 422.16 70.00 423.77 69.56 C 423.41 77.53 420.63 85.21 420.07 93.18 C 421.96 92.23 424.54 91.68 425.31 89.43 C 425.99 87.57 426.63 85.69 427.86 84.10 C 428.85 86.91 429.64 89.95 429.01 92.94 C 426.57 96.98 420.28 96.84 418.36 101.38 C 415.64 107.61 415.93 114.79 412.99 120.95 C 411.09 124.18 409.10 127.35 407.27 130.62 C 406.56 132.00 404.69 131.65 403.44 132.14 C 404.85 122.09 409.70 112.59 409.58 102.27 C 405.19 103.93 401.35 107.44 396.33 106.72 C 395.84 105.05 394.53 103.34 395.40 101.57 C 396.89 97.62 399.17 94.02 400.68 90.06 C 396.21 84.82 402.93 79.49 403.07 73.97 Z" />
<path fill="white" opacity="1.00" d=" M 323.95 71.85 C 326.18 71.45 328.47 69.99 330.73 70.98 C 332.77 72.61 333.91 75.40 333.06 77.96 C 332.06 82.11 331.62 86.55 333.16 90.63 C 336.73 91.19 341.14 90.18 343.79 93.25 C 345.61 95.05 345.83 98.06 343.98 99.93 C 341.56 101.44 338.26 101.28 336.24 103.43 C 334.58 107.40 334.85 112.34 331.34 115.40 C 326.24 120.00 318.81 118.37 312.56 118.51 C 315.72 117.22 319.22 116.22 321.52 113.51 C 323.57 111.05 325.13 108.13 326.04 105.05 C 323.55 102.84 320.07 103.54 317.05 103.28 C 314.46 103.21 312.00 102.34 309.65 101.33 C 312.97 98.98 316.34 96.60 320.20 95.20 C 322.23 94.62 323.55 92.90 324.90 91.40 C 323.57 88.23 324.05 84.62 322.74 81.50 C 319.34 80.92 315.47 81.82 312.79 79.13 C 313.06 76.95 312.05 73.86 314.45 72.60 C 317.58 72.01 320.87 72.94 323.95 71.85 Z" />
<path fill="white" opacity="1.00" d=" M 245.96 79.07 C 249.16 76.48 252.32 73.67 256.10 71.96 C 259.18 70.55 264.04 73.28 262.93 76.99 C 261.90 79.76 258.65 81.08 257.84 83.95 C 258.09 85.37 258.61 86.73 259.08 88.09 C 264.71 87.76 269.22 83.05 275.03 83.86 C 277.41 84.02 280.65 85.70 279.54 88.57 C 278.40 91.78 275.19 88.52 272.92 89.10 C 268.64 89.84 264.09 90.77 260.51 93.35 C 260.18 95.39 260.24 97.67 261.54 99.39 C 264.01 101.11 267.37 100.43 269.81 102.14 C 271.47 105.20 267.13 106.27 265.29 107.67 C 265.08 106.79 264.65 105.01 264.44 104.13 C 263.74 104.45 262.35 105.10 261.65 105.43 C 260.73 107.60 259.02 108.97 256.54 108.68 C 256.65 107.86 256.86 106.20 256.97 105.38 C 256.32 105.69 255.03 106.32 254.38 106.63 C 256.23 103.80 256.81 100.65 255.39 97.48 C 251.88 99.91 249.27 103.52 247.30 107.26 C 245.79 109.89 246.71 114.15 243.50 115.55 C 241.19 115.69 238.51 114.88 237.13 112.94 C 235.33 105.39 237.55 97.65 239.22 90.27 C 241.02 93.15 242.24 96.33 243.90 99.29 C 247.84 97.18 251.25 94.27 254.12 90.85 C 253.97 88.08 253.49 85.35 252.64 82.71 C 250.36 81.59 248.12 80.40 245.96 79.07 Z" />
<path fill="white" opacity="1.00" d=" M 384.98 83.96 C 388.32 83.35 391.78 80.22 395.18 81.98 C 395.13 85.79 391.69 87.95 389.43 90.52 C 385.56 98.39 385.25 107.37 382.05 115.47 C 380.67 115.06 379.13 115.00 377.98 114.05 C 377.77 112.08 377.89 110.10 377.94 108.13 C 375.66 108.97 373.10 110.42 370.69 109.13 C 373.17 103.47 378.31 99.46 380.85 93.80 C 375.71 94.33 370.83 96.27 365.63 96.29 C 364.57 95.19 363.53 94.09 362.51 92.96 C 368.07 90.99 373.85 89.77 379.55 88.31 C 382.02 87.88 383.49 85.77 384.98 83.96 Z" />
<path fill="white" opacity="1.00" d=" M 461.78 107.74 C 463.38 104.99 464.45 101.45 467.91 100.55 C 468.17 101.92 468.44 103.29 468.70 104.67 C 470.28 104.53 471.86 104.40 473.46 104.28 C 473.20 105.95 473.27 107.79 472.25 109.22 C 470.57 111.32 467.71 111.94 465.98 113.97 C 465.02 115.34 464.45 116.94 463.74 118.45 C 467.83 117.71 471.98 117.16 475.92 115.80 C 478.28 115.00 479.43 112.61 480.66 110.63 C 482.53 107.32 485.35 104.67 488.24 102.23 C 491.10 99.42 494.80 103.06 498.18 102.15 C 498.50 102.53 499.15 103.29 499.47 103.67 C 497.50 106.26 495.67 109.00 493.35 111.29 C 490.44 113.75 486.78 115.19 484.11 117.96 C 483.53 122.95 488.05 126.91 487.65 131.95 C 487.87 136.22 483.70 138.63 480.71 140.80 C 481.44 143.27 483.82 144.81 484.64 147.17 C 484.49 150.72 480.96 152.50 478.24 154.01 C 475.25 151.03 473.10 147.41 471.28 143.65 C 469.69 142.59 467.55 142.67 465.73 142.16 C 465.43 141.31 465.14 140.46 464.85 139.61 C 465.59 139.40 467.06 138.97 467.80 138.75 C 468.41 137.89 469.03 137.04 469.65 136.18 C 474.06 137.57 479.45 136.07 481.93 132.02 C 481.10 127.73 479.07 123.78 478.10 119.52 C 473.33 120.39 468.67 121.75 464.03 123.12 C 461.48 123.68 460.50 126.32 459.36 128.35 C 457.18 132.99 453.06 136.67 448.22 138.34 C 446.39 138.90 444.98 137.54 443.57 136.67 C 448.81 135.13 452.57 130.88 454.51 125.90 C 450.41 126.67 446.53 129.09 442.25 128.07 C 445.06 124.38 449.74 123.41 453.87 121.96 C 456.93 121.10 457.93 117.78 459.07 115.19 C 456.92 114.29 454.67 113.61 452.70 112.36 C 452.10 110.92 451.94 109.35 451.65 107.84 C 455.02 107.69 458.40 107.83 461.78 107.74 M 487.57 110.38 C 490.50 108.78 493.39 106.65 494.45 103.32 C 491.39 104.75 488.68 107.11 487.57 110.38 Z" />
<path fill="white" opacity="1.00" d=" M 264.60 110.39 C 269.35 109.14 275.16 108.41 279.16 111.93 C 277.44 115.33 275.90 118.81 274.19 122.22 C 272.97 124.68 271.21 127.09 271.34 129.98 C 270.72 132.93 275.19 133.70 276.87 131.90 C 279.16 130.56 282.73 127.33 285.04 130.09 C 285.35 133.26 282.61 135.62 280.30 137.33 C 277.26 139.56 273.08 138.63 270.04 136.89 C 267.65 135.50 266.50 132.58 263.90 131.57 C 260.80 132.85 256.95 136.60 253.81 133.22 C 250.87 129.58 245.49 125.16 248.08 120.01 C 248.96 117.69 251.58 117.17 253.76 117.71 C 254.52 122.61 257.98 126.09 261.35 129.41 C 262.01 128.01 262.84 126.63 263.04 125.05 C 262.18 124.08 261.20 123.22 260.26 122.33 C 260.59 120.33 260.76 118.32 260.83 116.30 C 259.19 116.51 257.54 116.74 255.90 116.94 C 257.67 113.59 260.93 111.24 264.60 110.39 M 265.31 115.34 C 265.51 116.84 268.22 116.58 268.56 115.26 C 268.31 113.75 265.75 114.13 265.31 115.34 M 267.20 120.25 C 265.31 122.90 270.57 120.68 267.20 120.25 Z" />
<path fill="white" opacity="1.00" d=" M 193.42 117.41 C 194.86 117.33 196.35 116.75 197.77 117.16 C 208.09 124.27 215.32 134.91 220.57 146.12 C 219.69 152.84 211.88 155.24 206.18 156.39 C 207.40 152.97 212.12 151.05 210.94 146.91 C 208.54 140.34 203.32 135.17 197.41 131.61 C 196.26 135.93 194.70 140.35 195.70 144.87 C 196.33 147.47 196.16 150.44 193.89 152.23 C 190.21 152.94 185.05 151.07 182.73 155.10 C 183.55 158.03 185.74 160.38 186.48 163.35 C 187.41 167.57 188.15 172.66 184.67 175.98 C 183.18 175.41 181.09 175.38 180.40 173.66 C 178.63 169.67 177.41 165.44 175.34 161.58 C 172.75 157.10 169.62 152.96 166.36 148.95 C 169.70 146.19 174.24 148.01 177.40 150.12 C 180.52 146.73 179.33 142.21 179.58 138.09 C 180.81 135.73 183.00 134.08 184.91 132.30 C 188.64 134.51 189.31 139.01 191.68 142.30 C 191.22 133.98 191.22 125.51 193.42 117.41 Z" />
<path fill="white" opacity="1.00" d=" M 333.62 136.86 C 358.05 135.24 382.81 136.95 406.50 143.37 C 449.53 154.66 488.75 179.70 517.25 213.85 C 541.93 243.22 558.58 279.27 564.82 317.13 C 572.08 361.28 565.79 407.76 545.93 447.95 C 529.88 481.06 505.14 509.85 474.98 530.90 C 442.22 553.86 402.93 567.45 362.96 569.46 C 328.27 571.50 293.11 564.92 261.45 550.57 C 228.49 535.60 199.36 512.28 177.64 483.32 C 159.92 459.82 147.09 432.67 140.18 404.05 C 131.68 368.67 132.14 331.18 141.71 296.06 C 150.92 262.04 168.63 230.37 192.78 204.71 C 229.14 165.64 280.38 140.88 333.62 136.86 M 301.04 150.13 C 266.29 158.61 233.88 176.33 207.89 200.89 C 196.35 212.03 185.45 224.06 177.07 237.80 C 191.51 217.56 209.76 200.08 230.45 186.31 C 278.41 153.85 339.73 142.70 396.25 154.69 C 445.13 164.85 490.39 192.54 520.75 232.30 C 522.11 233.71 522.54 236.38 524.64 236.84 C 524.32 236.02 523.95 235.22 523.52 234.45 C 518.55 229.03 514.67 222.72 509.70 217.29 C 478.09 180.16 433.16 154.62 384.98 146.87 C 357.16 142.32 328.42 143.39 301.04 150.13 M 330.60 154.74 C 312.98 156.57 295.57 160.67 279.06 167.13 C 242.65 181.16 210.61 206.24 188.16 238.14 C 167.22 267.61 154.59 302.92 152.18 338.99 C 150.33 363.87 153.38 389.10 160.86 412.90 C 173.76 454.23 200.73 490.92 236.10 515.84 C 267.51 538.16 305.56 550.99 344.07 552.16 C 380.86 553.57 418.01 544.38 449.91 525.99 C 483.36 506.83 511.14 477.83 528.54 443.41 C 543.64 414.13 551.06 380.96 550.18 348.06 C 549.49 317.91 541.83 287.94 527.84 261.23 C 508.78 224.40 477.90 193.80 440.84 175.18 C 407.09 157.88 368.28 150.89 330.60 154.74 M 525.89 467.14 C 517.37 478.40 508.35 489.37 497.87 498.88 C 466.57 528.12 426.18 547.31 383.84 553.56 C 343.26 559.71 300.92 554.30 263.32 537.77 C 230.00 523.26 200.70 499.93 178.84 470.92 C 188.44 485.90 200.83 498.98 214.10 510.78 C 242.53 535.53 277.76 552.42 314.92 558.81 C 360.45 566.82 408.61 559.30 449.32 537.30 C 480.22 520.86 506.74 496.41 525.89 467.14 Z" />
<path fill="white" opacity="1.00" d=" M 542.12 139.12 C 544.96 139.91 547.48 142.43 547.38 145.53 C 546.38 148.38 544.29 150.68 542.72 153.24 C 546.31 154.75 549.63 156.93 552.31 159.77 C 553.90 161.19 553.14 163.52 553.33 165.38 C 546.43 167.25 539.84 162.92 532.94 163.23 C 529.55 163.41 527.10 166.21 523.84 166.82 C 517.99 167.98 512.03 168.48 506.08 168.61 C 504.10 168.68 502.12 168.26 500.50 167.09 C 501.51 164.88 503.88 164.01 506.10 163.58 C 511.37 162.63 516.21 160.09 520.67 157.23 C 519.43 154.86 518.49 152.34 518.22 149.66 C 522.16 151.30 526.26 152.79 530.60 151.94 C 534.63 147.87 540.41 144.94 542.12 139.12 Z" />
<path fill="white" opacity="1.00" d=" M 162.61 170.97 C 161.84 168.20 162.89 164.56 166.02 163.91 C 169.65 162.60 172.86 165.23 176.15 166.31 C 174.05 168.83 172.88 172.98 169.18 173.51 C 166.90 174.22 162.88 174.03 162.61 170.97 Z" />
<path fill="white" opacity="1.00" d=" M 531.33 173.76 C 534.83 176.82 538.15 180.99 537.59 185.95 C 537.76 187.98 535.91 189.46 534.00 189.45 C 531.60 189.43 529.70 187.83 527.86 186.53 C 530.22 182.68 530.69 178.12 531.33 173.76 Z" />
<path fill="white" opacity="1.00" d=" M 113.97 187.84 C 112.76 183.02 120.67 177.54 123.49 183.13 C 123.90 187.67 122.77 192.18 121.65 196.54 C 118.62 194.14 115.28 191.64 113.97 187.84 Z" />
<path fill="white" opacity="1.00" d=" M 99.12 191.14 C 100.29 190.60 101.59 190.29 102.89 190.39 C 108.48 193.18 111.23 199.83 117.50 201.46 C 123.66 206.01 127.04 213.29 132.26 218.79 C 138.90 225.84 144.87 233.53 151.99 240.11 C 150.89 242.11 149.85 245.38 147.04 245.18 C 141.05 243.98 139.50 236.95 134.51 234.21 C 134.03 238.03 134.98 242.18 132.80 245.62 C 131.27 244.84 128.74 244.97 128.19 243.02 C 126.77 235.56 126.69 227.31 122.37 220.80 C 119.47 225.36 120.33 230.85 120.17 235.95 C 119.11 239.96 115.92 243.52 111.81 244.57 C 110.61 235.24 113.82 226.25 114.36 217.03 C 114.81 213.83 112.22 211.73 110.28 209.66 C 106.79 206.15 104.43 201.64 100.47 198.58 C 97.97 196.99 98.16 193.57 99.12 191.14 Z" />
<path fill="white" opacity="1.00" d=" M 128.71 192.52 C 130.78 188.81 136.11 189.03 139.05 191.56 C 139.05 195.01 139.14 198.46 139.26 201.91 C 142.69 202.48 145.57 204.61 148.90 205.43 C 153.02 203.44 155.02 198.94 158.15 195.81 C 160.57 198.02 162.85 201.46 160.88 204.71 C 158.43 207.36 155.63 210.15 152.12 211.22 C 147.42 211.06 144.19 206.99 140.27 204.88 C 141.42 211.35 143.02 217.81 142.54 224.45 C 141.05 223.98 139.06 224.33 138.00 222.96 C 134.81 218.11 134.95 212.12 134.53 206.56 C 132.37 207.41 130.49 209.71 127.99 209.13 C 125.81 207.49 124.25 204.31 125.61 201.69 C 126.95 198.74 127.62 195.56 128.71 192.52 Z" />
<path fill="white" opacity="1.00" d=" M 571.37 203.92 C 573.32 198.39 579.58 196.35 584.12 193.37 C 585.34 197.69 585.55 203.55 581.21 206.23 C 578.08 208.71 572.72 208.07 571.37 203.92 Z" />
<path fill="white" opacity="1.00" d=" M 586.33 208.41 C 587.83 205.26 590.49 202.84 592.14 199.77 C 593.20 200.97 594.42 202.06 595.25 203.44 C 595.77 205.60 595.57 207.88 595.87 210.08 C 602.56 211.09 608.61 207.36 614.94 205.97 C 617.52 205.75 619.58 208.65 618.00 210.87 C 615.26 212.94 611.82 213.55 608.68 214.73 C 606.79 216.43 607.54 219.24 607.28 221.47 C 604.65 224.01 601.01 224.49 597.57 225.05 C 599.20 226.95 601.16 228.64 602.31 230.91 C 602.84 233.87 599.12 234.67 596.95 234.06 C 591.40 232.74 585.68 231.83 580.47 229.43 C 579.81 232.69 577.91 235.37 575.34 237.43 C 576.98 239.67 579.19 241.51 580.41 244.05 C 579.73 247.20 575.77 246.65 573.53 245.68 C 571.56 245.23 569.50 243.54 567.48 244.59 C 565.75 246.21 565.06 248.85 562.82 249.91 C 558.14 251.27 553.04 248.33 550.84 244.21 C 549.89 240.27 549.75 236.12 550.12 232.09 C 550.90 230.16 553.28 230.36 554.99 230.09 C 559.86 229.94 564.10 233.09 568.96 233.19 C 570.29 230.82 570.99 227.15 574.40 227.23 C 582.42 225.01 589.38 231.79 597.38 230.48 C 596.13 229.11 594.81 227.77 593.22 226.80 C 584.53 221.46 575.87 215.83 568.99 208.19 C 577.60 209.21 584.03 215.54 590.95 220.08 C 595.06 221.45 601.14 220.68 602.71 215.91 C 602.52 214.54 602.01 213.04 600.69 212.39 C 596.24 212.35 591.41 214.22 587.26 211.81 C 586.45 210.88 585.43 209.65 586.33 208.41 M 554.61 237.98 C 555.38 239.26 555.86 241.02 557.44 241.57 C 558.72 242.50 559.57 240.52 560.62 240.06 C 558.65 239.26 556.65 238.53 554.61 237.98 Z" />
<path fill="white" opacity="1.00" d=" M 375.75 201.90 C 399.60 216.65 417.86 240.19 426.42 266.88 C 432.30 284.53 433.36 303.58 430.51 321.91 C 427.08 344.06 418.43 365.35 405.74 383.81 C 397.92 395.01 388.88 405.63 377.56 413.42 C 356.56 428.56 332.46 438.76 308.04 446.97 C 321.34 440.22 334.89 433.75 346.99 424.95 C 366.74 412.79 382.36 393.75 389.53 371.61 C 396.43 351.03 394.55 328.43 387.97 308.02 C 381.36 288.05 370.15 269.15 353.93 255.52 C 361.16 237.63 368.50 219.78 375.75 201.90 Z" />
<path fill="white" opacity="1.00" d=" M 549.49 207.47 C 552.81 204.66 557.23 203.60 561.31 202.35 C 562.38 207.00 560.10 211.28 557.99 215.24 C 555.46 215.12 552.49 215.54 550.70 213.34 C 548.80 212.06 547.34 209.27 549.49 207.47 Z" />
<path fill="white" opacity="1.00" d=" M 432.63 253.69 C 448.33 242.19 463.90 230.51 479.61 219.04 C 487.83 239.58 491.66 261.98 489.73 284.06 C 486.71 321.48 470.06 357.89 442.69 383.75 C 415.17 409.82 380.28 426.86 344.41 438.22 C 358.71 430.69 373.14 423.09 385.56 412.62 C 402.20 399.26 415.42 381.90 424.71 362.74 C 432.45 346.47 438.40 329.09 439.81 311.04 C 441.67 291.68 438.51 272.13 432.63 253.69 Z" />
<path fill="white" opacity="1.00" d=" M 291.33 234.21 C 304.98 238.05 318.38 243.14 330.69 250.24 C 355.25 265.26 373.94 289.79 381.59 317.57 C 386.60 335.45 386.60 354.86 380.60 372.50 C 374.80 389.81 363.46 404.87 349.83 416.83 C 338.38 426.72 325.27 434.76 311.15 440.23 C 302.96 442.89 295.01 446.24 286.85 448.99 C 305.98 441.30 324.56 430.93 338.92 415.92 C 350.22 404.31 354.90 387.85 355.40 372.01 C 355.88 353.06 348.77 334.06 335.88 320.15 C 320.79 303.47 298.66 294.69 276.59 292.58 C 281.59 273.14 286.48 253.68 291.33 234.21 Z" />
<path fill="white" opacity="1.00" d=" M 99.18 266.88 C 102.42 267.82 105.66 268.77 108.92 269.66 C 108.01 272.90 107.09 276.14 106.20 279.38 C 102.97 278.46 99.75 277.55 96.51 276.70 C 97.36 273.42 98.33 270.16 99.18 266.88 Z" />
<path fill="white" opacity="1.00" d=" M 597.16 269.58 C 600.41 268.74 603.66 267.85 606.89 266.88 C 607.74 270.16 608.68 273.41 609.49 276.70 C 606.28 277.55 603.09 278.45 599.91 279.37 C 598.96 276.12 598.06 272.85 597.16 269.58 Z" />
<path fill="white" opacity="1.00" d=" M 589.21 303.05 C 597.18 306.38 604.93 310.32 613.07 313.20 C 618.38 312.87 623.62 311.87 628.92 311.40 C 629.07 313.23 629.25 315.07 629.43 316.91 C 623.98 317.53 618.47 317.90 613.10 319.00 C 606.25 323.78 600.08 329.50 593.33 334.43 C 593.05 332.49 592.80 330.56 592.57 328.62 C 597.53 324.65 602.62 320.83 607.52 316.77 C 601.67 314.13 595.73 311.70 589.90 309.06 C 589.69 307.05 589.45 305.04 589.21 303.05 Z" />
<path fill="white" opacity="1.00" d=" M 74.01 305.06 C 86.69 306.71 99.39 308.12 112.07 309.75 C 111.78 311.56 111.50 313.39 111.23 315.21 C 105.22 314.32 99.18 313.62 93.13 312.97 C 92.28 318.79 91.46 324.61 90.91 330.46 C 96.98 331.11 103.06 331.75 109.09 332.68 C 108.79 334.47 108.51 336.27 108.23 338.07 C 95.69 336.33 83.09 335.06 70.54 333.37 C 70.72 331.55 70.90 329.73 71.07 327.92 C 75.95 328.69 80.87 329.08 85.75 329.82 C 86.59 323.99 87.31 318.14 88.04 312.30 C 83.21 311.68 78.37 311.16 73.55 310.55 C 73.70 308.71 73.86 306.89 74.01 305.06 Z" />
<path fill="white" opacity="1.00" d=" M 279.98 326.00 C 294.60 323.72 309.57 322.78 324.30 324.49 C 313.50 324.15 302.74 326.29 292.45 329.46 C 273.21 335.57 254.43 345.79 241.89 361.99 C 232.89 373.41 228.50 388.58 231.04 403.00 C 233.26 419.20 241.67 434.33 253.95 445.07 C 268.82 458.12 287.68 465.67 306.74 470.15 C 329.01 475.20 352.05 476.75 374.82 475.28 C 411.56 473.00 448.62 463.78 479.86 443.77 C 495.61 433.55 509.51 420.41 520.12 404.90 C 515.00 421.30 504.80 435.71 492.49 447.53 C 478.86 460.75 462.83 471.29 445.96 479.91 C 407.81 499.48 364.89 509.78 321.99 509.17 C 299.21 508.66 276.21 505.43 254.95 496.93 C 236.35 489.56 218.93 478.28 206.33 462.57 C 194.84 448.06 187.60 429.67 188.37 411.00 C 188.44 391.04 198.25 372.09 212.24 358.24 C 230.45 340.34 255.03 330.10 279.98 326.00 Z" />
<path fill="white" opacity="1.00" d=" M 592.99 339.61 C 594.71 339.62 596.43 339.63 598.16 339.64 C 597.97 343.99 597.99 348.35 598.08 352.70 C 609.11 352.78 620.12 353.23 631.15 353.40 C 630.98 355.30 630.79 357.19 630.58 359.09 C 619.64 358.25 608.64 358.42 597.68 358.16 C 597.45 362.51 597.29 366.87 597.38 371.24 C 595.69 371.18 594.02 371.13 592.35 371.07 C 592.63 360.59 592.80 350.10 592.99 339.61 Z" />
<path fill="white" opacity="1.00" d=" M 68.89 345.49 C 81.84 349.49 94.80 353.50 107.72 357.60 C 107.91 359.90 108.00 362.20 108.04 364.52 C 95.52 369.46 82.98 374.36 70.50 379.39 C 70.38 377.48 70.24 375.56 70.03 373.66 C 73.44 372.24 76.97 371.10 80.34 369.58 C 80.66 364.47 79.83 359.39 79.85 354.29 C 76.40 353.24 72.95 352.21 69.50 351.18 C 69.31 349.28 69.09 347.38 68.89 345.49 M 85.03 355.86 C 85.06 359.83 85.20 363.81 85.17 367.79 C 90.81 365.53 96.48 363.36 102.15 361.19 C 96.48 359.29 90.74 357.61 85.03 355.86 Z" />
<path fill="white" opacity="1.00" d=" M 592.06 377.11 C 593.53 377.29 594.98 377.46 596.46 377.64 C 596.36 379.24 596.27 380.84 596.19 382.44 C 605.87 383.40 615.54 384.57 625.20 385.71 C 625.36 384.03 625.56 382.38 625.73 380.71 C 627.15 380.96 628.57 381.25 629.99 381.58 C 629.66 386.50 628.95 391.39 628.31 396.28 C 626.83 396.17 625.35 396.06 623.89 395.95 C 624.09 394.35 624.32 392.76 624.55 391.17 C 614.82 389.94 605.08 388.71 595.30 387.96 C 595.19 389.45 595.10 390.94 595.00 392.44 C 593.50 392.32 592.00 392.20 590.51 392.08 C 590.93 387.08 591.77 382.12 592.06 377.11 Z" />
<path fill="white" opacity="1.00" d=" M 71.01 390.68 C 83.54 388.52 96.02 385.96 108.61 384.16 C 109.20 386.71 109.48 389.32 109.97 391.90 C 101.19 398.63 92.26 405.18 83.58 412.05 C 93.20 410.38 102.83 408.76 112.42 406.90 C 112.74 408.61 113.05 410.32 113.35 412.05 C 100.82 414.22 88.32 416.54 75.78 418.66 C 75.45 416.54 74.93 414.42 74.90 412.27 C 84.22 404.64 94.22 397.85 103.51 390.19 C 92.97 391.87 82.48 393.91 71.95 395.69 C 71.65 394.01 71.33 392.34 71.01 390.68 Z" />
<path fill="white" opacity="1.00" d=" M 586.01 421.03 C 584.83 414.71 586.77 408.33 589.48 402.67 C 591.69 402.85 593.92 403.02 596.14 403.27 C 592.31 408.41 588.92 415.18 591.44 421.63 C 592.62 425.10 597.87 426.10 600.01 423.01 C 603.30 417.55 602.69 410.18 607.51 405.55 C 612.67 401.42 621.06 404.14 623.55 410.06 C 627.03 417.60 624.35 426.22 620.87 433.25 C 618.49 432.99 616.12 432.69 613.75 432.39 C 617.65 427.91 620.71 422.18 620.13 416.06 C 619.82 413.59 618.88 410.71 616.39 409.67 C 614.53 409.06 612.02 409.01 610.78 410.79 C 607.34 415.71 608.03 422.45 604.21 427.20 C 601.65 430.50 596.93 431.03 593.13 429.95 C 589.25 428.69 586.84 424.84 586.01 421.03 Z" />
<path fill="white" opacity="1.00" d=" M 85.46 438.31 C 89.87 425.82 108.07 421.43 117.99 429.95 C 124.69 436.24 125.18 446.50 123.23 454.95 C 121.00 455.43 118.77 455.93 116.53 456.42 C 118.38 451.84 120.18 446.84 118.89 441.86 C 118.23 436.40 113.73 431.47 108.09 431.19 C 101.26 430.63 93.10 433.47 90.41 440.30 C 88.27 445.73 90.63 451.51 93.13 456.38 C 96.03 455.71 98.92 455.03 101.81 454.38 C 101.09 451.21 100.41 448.02 99.68 444.86 C 101.30 444.43 102.91 443.99 104.53 443.58 C 105.61 448.57 106.72 453.56 107.75 458.57 C 102.35 459.83 96.93 461.02 91.56 462.39 C 86.44 455.63 82.85 446.80 85.46 438.31 Z" />
<path fill="white" opacity="1.00" d=" M 578.63 443.52 C 581.64 439.19 588.07 437.13 592.65 440.21 C 596.37 442.46 597.98 446.78 598.48 450.91 C 605.17 448.60 611.96 446.56 618.73 444.49 C 617.86 446.69 616.98 448.87 616.09 451.06 C 609.96 452.91 603.83 454.75 597.70 456.57 C 596.96 458.55 596.17 460.51 595.38 462.48 C 599.94 464.43 604.49 466.40 609.07 468.32 C 608.38 470.02 607.68 471.72 606.98 473.42 C 595.31 468.41 583.66 463.39 571.98 458.43 C 574.18 453.46 575.67 448.11 578.63 443.52 M 578.58 455.29 C 582.71 457.03 586.82 458.81 590.96 460.54 C 592.26 457.19 594.39 453.81 593.74 450.07 C 592.95 446.63 589.22 444.55 585.89 444.58 C 581.16 445.86 580.40 451.47 578.58 455.29 Z" />
<path fill="white" opacity="1.00" d=" M 125.83 461.58 C 127.32 460.82 128.81 460.07 130.31 459.33 C 134.49 467.65 138.60 476.01 142.81 484.32 C 140.96 485.02 139.21 486.69 137.10 486.23 C 125.97 484.10 114.89 481.73 103.76 479.60 C 107.06 486.49 110.54 493.29 113.96 500.13 C 112.44 500.90 110.93 501.67 109.41 502.44 C 105.08 493.70 100.75 484.95 96.31 476.26 C 97.83 475.47 99.36 474.69 100.89 473.92 C 112.34 476.26 123.83 478.38 135.27 480.76 C 132.24 474.31 128.87 468.02 125.83 461.58 Z" />
<path fill="white" opacity="1.00" d=" M 556.91 488.16 C 560.91 480.92 564.88 473.67 568.95 466.47 C 570.39 467.30 571.85 468.14 573.30 468.98 C 570.19 474.63 567.07 480.27 563.96 485.92 C 566.72 487.49 569.47 489.09 572.17 490.78 C 575.31 485.18 578.43 479.57 581.47 473.92 C 582.97 474.71 584.46 475.52 585.97 476.31 C 582.87 481.99 579.67 487.62 576.63 493.33 C 580.43 495.50 584.18 497.74 587.98 499.93 C 591.11 494.30 594.28 488.70 597.32 483.03 C 598.77 483.91 600.22 484.77 601.69 485.65 C 597.72 492.92 593.63 500.12 589.71 507.42 C 578.84 500.89 567.80 494.65 556.91 488.16 Z" />
<path fill="white" opacity="1.00" d=" M 116.66 513.52 C 127.04 506.30 137.36 499.02 147.71 491.76 C 148.79 493.27 149.88 494.78 150.95 496.30 C 145.98 499.73 141.08 503.26 136.09 506.66 C 139.54 511.47 143.20 516.13 146.64 520.95 C 151.61 517.49 156.53 513.95 161.51 510.49 C 162.66 511.96 163.78 513.45 164.91 514.95 C 154.54 522.14 144.24 529.43 133.89 536.65 C 132.79 535.17 131.68 533.69 130.57 532.22 C 134.21 529.55 138.05 527.15 141.64 524.42 C 141.71 524.11 141.84 523.49 141.91 523.18 C 138.83 518.50 135.19 514.22 131.98 509.62 C 127.96 512.40 123.95 515.19 119.98 518.02 C 118.87 516.52 117.76 515.02 116.66 513.52 Z" />
<path fill="white" opacity="1.00" d=" M 550.75 498.66 C 551.99 497.09 553.21 495.53 554.45 493.97 C 561.94 504.95 569.40 515.95 576.82 526.98 C 575.38 528.82 573.93 530.66 572.48 532.49 C 559.62 528.58 546.64 525.07 533.81 521.09 C 534.77 519.53 535.88 518.07 536.96 516.60 C 547.89 519.84 558.79 523.17 569.76 526.28 C 563.53 517.00 557.14 507.82 550.75 498.66 Z" />
<path fill="white" opacity="1.00" d=" M 517.76 535.98 C 521.40 532.35 525.09 528.77 528.62 525.03 C 529.65 526.12 530.69 527.20 531.74 528.29 C 530.61 529.40 529.48 530.50 528.35 531.61 C 535.48 538.08 542.42 544.75 549.59 551.18 C 550.71 550.06 551.83 548.94 552.95 547.83 C 554.02 548.80 555.10 549.77 556.19 550.75 C 552.64 554.40 548.95 557.92 545.50 561.67 C 544.42 560.65 543.34 559.65 542.25 558.67 C 543.27 557.51 544.33 556.39 545.25 555.15 C 538.67 548.25 531.26 542.19 524.45 535.53 C 523.32 536.66 522.19 537.80 521.08 538.94 C 519.97 537.94 518.87 536.96 517.76 535.98 Z" />
<path fill="white" opacity="1.00" d=" M 165.25 529.29 C 174.70 525.74 185.60 532.60 188.09 541.98 C 189.51 548.25 186.43 554.55 182.16 559.00 C 178.21 563.10 172.92 566.54 167.02 566.41 C 160.51 566.33 154.59 562.08 151.40 556.57 C 148.61 551.78 149.20 545.63 151.93 540.96 C 154.97 535.79 159.61 531.44 165.25 529.29 M 167.38 534.51 C 161.92 536.79 157.42 541.54 155.42 547.11 C 153.13 554.14 159.97 561.66 167.07 561.00 C 170.93 560.89 174.31 558.55 177.04 556.01 C 180.02 553.06 182.80 549.35 182.94 544.99 C 183.19 537.46 174.33 531.25 167.38 534.51 Z" />
<path fill="white" opacity="1.00" d=" M 507.55 545.50 C 508.94 544.39 510.34 543.28 511.73 542.16 C 519.17 552.25 526.76 562.23 534.20 572.33 C 532.46 573.66 530.73 575.01 529.01 576.36 C 518.22 571.48 507.53 566.41 496.73 561.57 C 502.81 570.21 509.35 578.54 515.66 587.03 C 514.25 588.13 512.84 589.24 511.44 590.36 C 504.08 580.23 496.52 570.25 488.96 560.28 C 491.09 558.61 493.21 556.93 495.30 555.21 C 505.28 559.58 515.09 564.33 525.03 568.80 C 519.20 561.04 513.39 553.25 507.55 545.50 Z" />
<path fill="white" opacity="1.00" d=" M 200.50 553.68 C 201.94 554.87 203.38 556.09 204.80 557.32 C 199.90 562.92 195.03 568.55 190.11 574.15 C 188.03 576.57 185.78 579.56 186.26 582.95 C 187.31 587.01 191.12 589.90 195.10 590.73 C 198.44 591.02 201.27 588.75 203.34 586.39 C 208.49 580.50 213.63 574.59 218.77 568.69 C 220.22 569.88 221.67 571.07 223.13 572.26 C 217.83 578.25 212.62 584.33 207.33 590.34 C 205.10 592.73 202.37 594.87 199.11 595.57 C 194.30 596.86 189.33 594.39 185.87 591.13 C 183.01 588.57 180.65 585.01 180.79 581.04 C 180.88 576.80 183.54 573.23 186.17 570.14 C 190.98 564.68 195.74 559.18 200.50 553.68 Z" />
<path fill="white" opacity="1.00" d=" M 482.65 566.09 C 486.44 572.70 490.33 579.26 494.07 585.91 C 497.07 590.94 497.95 598.07 493.71 602.68 C 489.30 607.35 481.92 610.02 475.78 607.40 C 472.15 605.72 469.80 602.33 467.85 598.99 C 464.19 592.74 460.66 586.42 456.92 580.21 C 458.57 579.31 460.20 578.39 461.85 577.48 C 465.67 583.94 469.37 590.49 473.18 596.96 C 474.89 600.08 477.38 603.15 481.17 603.59 C 486.76 603.41 493.55 598.25 490.86 592.08 C 487.05 584.07 482.09 576.64 477.75 568.91 C 479.38 567.97 481.02 567.04 482.65 566.09 Z" />
<path fill="white" opacity="1.00" d=" M 251.42 578.77 C 258.44 582.06 266.73 583.84 271.93 590.03 C 280.15 600.16 272.93 617.85 259.95 619.31 C 251.53 620.44 244.03 615.82 236.49 612.92 C 241.42 601.51 246.56 590.20 251.42 578.77 M 243.62 610.70 C 247.91 612.38 252.21 614.55 256.91 614.56 C 265.65 614.37 271.34 604.30 269.47 596.38 C 267.21 590.06 260.41 587.60 254.70 585.35 C 251.05 593.82 247.23 602.21 243.62 610.70 Z" />
<path fill="white" opacity="1.00" d=" M 416.54 594.27 C 421.45 592.92 426.33 591.44 431.20 589.93 C 431.63 591.32 432.07 592.72 432.51 594.13 C 430.96 594.59 429.42 595.05 427.89 595.52 C 430.69 604.60 433.60 613.64 436.50 622.70 C 438.01 622.21 439.55 621.76 441.08 621.30 C 441.56 622.66 442.04 624.01 442.53 625.39 C 437.60 626.91 432.64 628.32 427.70 629.80 C 427.26 628.40 426.83 627.01 426.41 625.62 C 427.96 625.18 429.52 624.74 431.09 624.33 C 428.24 615.23 425.34 606.15 422.43 597.08 C 420.88 597.56 419.32 598.05 417.77 598.55 C 417.35 597.11 416.94 595.69 416.54 594.27 Z" />
<path fill="white" opacity="1.00" d=" M 287.04 591.31 C 292.06 592.59 297.04 594.00 302.07 595.23 C 301.69 596.64 301.32 598.06 300.95 599.49 C 299.38 599.04 297.82 598.61 296.26 598.18 C 293.57 607.26 291.09 616.39 288.52 625.51 C 290.10 625.99 291.68 626.46 293.26 626.94 C 292.84 628.32 292.42 629.71 292.00 631.09 C 287.09 629.64 282.12 628.41 277.18 627.09 C 277.55 625.68 277.92 624.27 278.29 622.87 C 279.88 623.28 281.48 623.70 283.08 624.10 C 285.65 614.96 288.21 605.80 290.80 596.66 C 289.24 596.32 287.69 595.99 286.14 595.65 C 286.43 594.20 286.73 592.75 287.04 591.31 Z" />
<path fill="white" opacity="1.00" d=" M 381.38 601.03 C 390.72 599.57 400.03 597.91 409.37 596.43 C 409.67 597.98 409.98 599.53 410.29 601.09 C 404.09 611.32 398.03 621.63 391.90 631.91 C 399.61 630.67 407.31 629.39 415.00 628.08 C 415.21 629.71 415.43 631.35 415.66 633.00 C 405.78 634.53 395.95 636.33 386.06 637.85 C 385.88 636.17 385.70 634.50 385.53 632.84 C 391.56 622.67 397.61 612.51 403.60 602.31 C 396.43 603.64 389.20 604.64 382.03 606.00 C 381.82 604.33 381.60 602.68 381.38 601.03 Z" />
<path fill="white" opacity="1.00" d=" M 301.95 633.07 C 308.32 621.49 314.67 609.91 321.04 598.34 C 323.39 598.62 325.73 598.89 328.08 599.17 C 330.97 612.02 333.66 624.91 336.53 637.75 C 334.64 637.52 332.75 637.31 330.87 637.11 C 330.12 633.56 329.43 630.01 328.64 626.48 C 323.45 625.75 318.25 625.12 313.09 624.28 C 311.34 627.47 309.59 630.66 307.90 633.88 C 305.93 633.57 303.93 633.30 301.95 633.07 M 315.51 619.79 C 319.56 620.46 323.64 620.94 327.70 621.58 C 326.39 615.78 325.19 609.95 323.94 604.14 C 321.20 609.39 318.32 614.57 315.51 619.79 Z" />
<path fill="white" opacity="1.00" d=" M 344.82 600.82 C 347.55 600.84 350.30 600.68 353.03 600.99 C 358.50 610.36 362.94 620.32 368.50 629.65 C 368.63 620.09 368.82 610.53 368.83 600.97 C 370.61 600.96 372.41 600.96 374.20 600.97 C 374.18 613.39 373.59 625.80 373.61 638.22 C 371.38 638.17 369.16 638.15 366.93 638.13 C 361.19 627.70 356.01 616.96 350.09 606.63 C 350.24 617.10 349.45 627.56 349.62 638.03 C 347.87 638.02 346.12 638.01 344.37 638.01 C 344.52 625.61 344.84 613.22 344.82 600.82 Z" />
</g>
<g id="#5a6e9cff">
<path fill="#5a6e9c" opacity="1.00" d=" M 593.29 147.36 C 593.82 147.84 593.82 147.84 593.29 147.36 Z" />
</g>
</svg>
