<?xml version="1.0" standalone="no"?><!DOCTYPE svg PUBLIC "-//W3C//DTD SVG 1.1//EN" "http://www.w3.org/Graphics/SVG/1.1/DTD/svg11.dtd"><svg t="1555239977766" class="icon" style="" viewBox="0 0 1024 1024" version="1.1" xmlns="http://www.w3.org/2000/svg" p-id="1356" xmlns:xlink="http://www.w3.org/1999/xlink" width="200" height="200"><defs><style type="text/css"></style></defs><path d="M938.666667 128 298.666667 128C268.8 128 247.466667 145.066667 230.4 166.4L0 512l230.4 345.6c17.066667 21.333333 42.666667 38.4 72.533333 38.4L938.666667 896c46.933333 0 85.333333-38.4 85.333333-85.333333L1024 213.333333C1024 166.4 985.6 128 938.666667 128zM384 576c-34.133333 0-64-29.866667-64-64s29.866667-64 64-64c34.133333 0 64 29.866667 64 64S418.133333 576 384 576zM597.333333 576c-34.133333 0-64-29.866667-64-64s29.866667-64 64-64c34.133333 0 64 29.866667 64 64S631.466667 576 597.333333 576zM810.666667 576c-34.133333 0-64-29.866667-64-64s29.866667-64 64-64c34.133333 0 64 29.866667 64 64S844.8 576 810.666667 576z" p-id="1357" fill="#eeeeee"></path></svg>