<?xml version="1.0" standalone="no"?><!DOCTYPE svg PUBLIC "-//W3C//DTD SVG 1.1//EN" "http://www.w3.org/Graphics/SVG/1.1/DTD/svg11.dtd"><svg t="1553149380753" class="icon" style="" viewBox="0 0 1024 1024" version="1.1" xmlns="http://www.w3.org/2000/svg" p-id="6315" xmlns:xlink="http://www.w3.org/1999/xlink" width="200" height="200"><defs><style type="text/css"></style></defs><path d="M914.288 420.576l0 109.728q0 22.848-16 38.848t-38.848 16l-237.728 0 0 237.728q0 22.848-16 38.848t-38.848 16l-109.728 0q-22.848 0-38.848-16t-16-38.848l0-237.728-237.728 0q-22.848 0-38.848-16t-16-38.848l0-109.728q0-22.848 16-38.848t38.848-16l237.728 0 0-237.728q0-22.848 16-38.848t38.848-16l109.728 0q22.848 0 38.848 16t16 38.848l0 237.728 237.728 0q22.848 0 38.848 16t16 38.848z" p-id="6316" fill="#ffffff"></path></svg>