<?xml version="1.0" standalone="no"?><!DOCTYPE svg PUBLIC "-//W3C//DTD SVG 1.1//EN" "http://www.w3.org/Graphics/SVG/1.1/DTD/svg11.dtd"><svg t="1553091836141" class="icon" style="" viewBox="0 0 1024 1024" version="1.1" xmlns="http://www.w3.org/2000/svg" p-id="2555" xmlns:xlink="http://www.w3.org/1999/xlink" width="200" height="200"><defs><style type="text/css"></style></defs><path d="M262.992 772.512l-108.672 26.624a458.272 458.272 0 0 1-68.272-116.704l76.672-81.264c-7.248-28.512-11.104-58.384-11.104-89.168s3.856-60.672 11.104-89.184l-76.672-81.264a458.08 458.08 0 0 1 68.272-116.704l108.672 26.624a359.968 359.968 0 0 1 149.76-86.016l31.136-107.104c22.208-3.312 44.96-5.024 68.112-5.024s45.904 1.712 68.128 5.024l31.136 107.104a359.76 359.76 0 0 1 149.728 86.016l108.704-26.624a458.96 458.96 0 0 1 68.256 116.704l-76.688 81.264c7.264 28.512 11.12 58.4 11.12 89.184s-3.856 60.656-11.12 89.168l76.688 81.264a458.96 458.96 0 0 1-68.256 116.704l-108.704-26.624a360.16 360.16 0 0 1-149.728 86.032l-31.136 107.088c-22.224 3.328-44.976 5.024-68.128 5.024s-45.904-1.696-68.128-5.024l-31.136-107.088a359.872 359.872 0 0 1-149.744-86.032zM512 749.536c131.168 0 237.536-106.352 237.536-237.536S643.184 274.48 512 274.48 274.48 380.816 274.48 512c0 131.168 106.336 237.536 237.52 237.536z m0-96.256c78.032 0 141.28-63.248 141.28-141.28a141.28 141.28 0 1 0-282.576 0A141.28 141.28 0 0 0 512 653.28z" p-id="2556" ></path></svg>