<?xml version="1.0" standalone="no"?><!DOCTYPE svg PUBLIC "-//W3C//DTD SVG 1.1//EN" "http://www.w3.org/Graphics/SVG/1.1/DTD/svg11.dtd"><svg t="1553091990031" class="icon" style="" viewBox="0 0 1024 1024" version="1.1" xmlns="http://www.w3.org/2000/svg" p-id="3312" xmlns:xlink="http://www.w3.org/1999/xlink" width="200" height="200"><defs><style type="text/css"></style></defs><path d="M283.083845 290.799062c0 126.207423 102.313224 228.5186 228.511437 228.5186 126.2064 0 228.514507-102.311177 228.514507-228.5186 0-126.202307-102.308107-228.51553-228.514507-228.51553C385.390929 62.283532 283.083845 164.596755 283.083845 290.799062L283.083845 290.799062zM647.796314 519.854898c-39.302121 25.200962-86.044702 39.814798-136.202055 39.814798-50.154283 0-96.894817-14.613836-136.197962-39.814798-171.106006 56.998155-294.485011 218.435964-294.485011 408.697239 0 11.157107 0.422625 22.218024 1.254573 33.164331l858.852706 0c0.831948-10.946306 1.255597-22.007223 1.255597-33.164331 0-190.261275-123.372865-351.698061-294.483988-408.697239L647.796314 519.854898zM647.796314 519.854898" p-id="3313" ></path></svg>