<?xml version="1.0" standalone="no"?><!DOCTYPE svg PUBLIC "-//W3C//DTD SVG 1.1//EN" "http://www.w3.org/Graphics/SVG/1.1/DTD/svg11.dtd"><svg t="1553135490189" class="icon" style="" viewBox="0 0 1024 1024" version="1.1" xmlns="http://www.w3.org/2000/svg" p-id="5560" xmlns:xlink="http://www.w3.org/1999/xlink" width="200" height="200"><defs><style type="text/css"></style></defs><path d="M446.906074 543.162629c149.926646 0 271.537669-121.653549 271.537669-271.430235C718.443743 121.675931 596.855102 0 446.906074 0 296.871993 0 175.431074 121.698313 175.431074 271.732394 175.431074 421.50908 296.849611 543.162629 446.906074 543.162629z" p-id="5561" ></path><path d="M790.102346 617.688381c-14.340226-30.712748-32.404837-61.597839-55.476328-91.068379-12.413125-15.795064-35.057118-33.132256-56.95131-45.00821-56.761062 63.607753-139.033267 103.888859-230.768634 103.888859-91.66822 0-173.920281-40.281105-230.616435-103.741137-21.401785 12.157969-43.448176 29.495161-55.453946 45.24546-38.953846 50.832038-99.074464 149.351426-108.662965 282.113222-2.012153 28.017941 11.323116 70.801367 34.737054 87.131364 44.432989 31.099959 140.273237 70.886419 339.834477 70.886419 69.089135 0 127.305035-4.259318 176.509893-10.893379-19.861895-33.494846-31.482693-72.448692-31.482693-114.142109C571.749075 720.337271 669.153833 621.112846 790.102346 617.688381z" p-id="5562" ></path><path d="M790.102346 660.151744c-100.466632 0-181.924128 81.459734-181.924128 181.924128 0 100.464394 81.459734 181.92189 181.924128 181.92189s181.924128-81.459734 181.924128-181.92189C972.026474 741.611478 890.586884 660.151744 790.102346 660.151744zM879.908373 875.550574l-70.179144 0 0 70.201527c0 11.620798-9.438541 21.036957-21.059339 21.036957s-21.061577-9.416159-21.061577-21.036957l0-70.179144-70.176906-0.022382c-11.64318 0.022382-21.061577-9.393777-21.039195-21.019051 0-11.640942 9.416159-21.059339 21.039195-21.059339l70.199288 0 0-70.179144c0-11.620798 9.418397-21.036957 21.039195-21.019051 11.600654 0 21.036957 9.396015 21.059339 21.039195l0 70.159 70.159 0c11.620798 0 21.039195 9.418397 21.061577 21.061577C900.947568 866.134415 891.529171 875.550574 879.908373 875.550574z" p-id="5563"></path></svg>