<?xml version="1.0" standalone="no"?><!DOCTYPE svg PUBLIC "-//W3C//DTD SVG 1.1//EN" "http://www.w3.org/Graphics/SVG/1.1/DTD/svg11.dtd"><svg t="1553135454992" class="icon" style="" viewBox="0 0 1024 1024" version="1.1" xmlns="http://www.w3.org/2000/svg" p-id="4795" xmlns:xlink="http://www.w3.org/1999/xlink" width="200" height="200"><defs><style type="text/css"></style></defs><path d="M1004.8 601.6c-6.4-12.8-12.8-19.2-25.6-19.2s-19.2 0-25.6 6.4l-70.4 70.4-44.8-44.8 70.4-70.4c6.4-6.4 12.8-19.2 6.4-25.6 0-12.8-6.4-19.2-19.2-25.6-76.8-32-166.4-19.2-230.4 44.8-57.6 57.6-76.8 134.4-51.2 211.2l-89.6 89.6c-19.2 19.2-25.6 38.4-25.6 64s12.8 51.2 25.6 64c19.2 19.2 38.4 25.6 64 25.6s51.2-12.8 64-25.6l102.4-102.4c12.8-12.8 12.8-32 0-44.8s-32-12.8-44.8 0l-102.4 102.4c-12.8 12.8-32 12.8-44.8 0-6.4-6.4-6.4-12.8-6.4-19.2s0-12.8 6.4-19.2l102.4-102.4c6.4-6.4 12.8-25.6 6.4-38.4-25.6-57.6-12.8-115.2 32-160 32-32 70.4-44.8 108.8-38.4l-44.8 51.2c-6.4 6.4-6.4 12.8-6.4 25.6s0 12.8 6.4 19.2l89.6 89.6c12.8 12.8 32 12.8 44.8 0l51.2-51.2c0 38.4-12.8 76.8-38.4 108.8-19.2 19.2-51.2 38.4-83.2 38.4-19.2 0-32 19.2-25.6 38.4s19.2 32 38.4 25.6c44.8-6.4 83.2-25.6 115.2-57.6 57.6-57.6 76.8-153.6 44.8-230.4z"  p-id="4796"></path><path d="M467.2 960c-224-25.6-396.8-217.6-396.8-448 0-249.6 198.4-448 448-448 185.6 0 345.6 108.8 416 281.6 6.4 19.2 25.6 25.6 44.8 19.2 19.2-6.4 25.6-25.6 19.2-44.8-76.8-192-262.4-320-473.6-320-281.6 0-512 230.4-512 512 0 262.4 192 480 454.4 505.6h6.4c19.2 0 32-12.8 32-25.6-12.8-12.8-25.6-32-38.4-32z"  p-id="4797"></path><path d="M518.4 249.6c89.6 0 166.4 44.8 217.6 115.2 12.8 12.8 32 19.2 44.8 6.4 12.8-12.8 19.2-32 6.4-44.8-57.6-89.6-160-147.2-268.8-147.2C339.2 185.6 192 332.8 192 512c0 140.8 89.6 262.4 224 307.2h12.8c12.8 0 25.6-6.4 32-19.2 6.4-19.2-6.4-32-19.2-38.4C326.4 723.2 256 627.2 256 512c0-140.8 115.2-262.4 262.4-262.4z" p-id="4798"></path><path d="M486.4 576c-25.6-12.8-38.4-38.4-38.4-64 0-38.4 32-70.4 70.4-70.4 19.2 0 38.4 6.4 51.2 25.6 12.8 12.8 32 12.8 44.8 0 12.8-12.8 12.8-32 0-44.8-25.6-32-64-44.8-102.4-44.8-70.4 0-128 64-128 134.4 0 51.2 32 96 76.8 121.6 6.4 0 6.4 6.4 12.8 6.4 12.8 0 25.6-6.4 25.6-19.2 6.4-19.2 0-38.4-12.8-44.8z"  p-id="4799"></path></svg>